<svg width="32" height="32" viewBox="0 0 32 32" fill="none" xmlns="http://www.w3.org/2000/svg">
  <defs>
    <radialGradient id="shimmer" cx="50%" cy="50%" r="50%">
      <stop offset="0%" stop-color="#667eea" stop-opacity="1" />
      <stop offset="70%" stop-color="#667eea" stop-opacity="0.8" />
      <stop offset="100%" stop-color="#667eea" stop-opacity="0.3" />
    </radialGradient>
    
    <filter id="sparkle">
      <feGaussianBlur stdDeviation="0.3" result="coloredBlur"/>
      <feMerge> 
        <feMergeNode in="coloredBlur"/>
        <feMergeNode in="SourceGraphic"/> 
      </feMerge>
    </filter>
  </defs>
  
  <!-- Heart shape background -->
  <path 
    d="M16 28C16 28 5 18 5 11.5C5 7.5 8.5 4 12.5 4C14.5 4 16 5 16 5S17.5 4 19.5 4C23.5 4 27 7.5 27 11.5C27 18 16 28 16 28Z"
    fill="#667eea" 
    opacity="0.12"
  />
  
  <!-- Core neural nodes -->
  <circle cx="16" cy="16" r="2" fill="url(#shimmer)" opacity="0.9" filter="url(#sparkle)">
    <animate attributeName="opacity" values="0.7;1;0.9;1;0.7" dur="3s" repeatCount="indefinite" />
  </circle>
  
  <circle cx="12" cy="11" r="1.8" fill="url(#shimmer)" opacity="0.7" filter="url(#sparkle)">
    <animate attributeName="opacity" values="0.5;0.9;0.7;0.9;0.5" dur="4s" repeatCount="indefinite" />
  </circle>
  <circle cx="20" cy="11" r="1.8" fill="url(#shimmer)" opacity="0.7" filter="url(#sparkle)">
    <animate attributeName="opacity" values="0.5;0.9;0.7;0.9;0.5" dur="4.5s" repeatCount="indefinite" />
  </circle>
  
  <circle cx="10" cy="15" r="1.5" fill="url(#shimmer)" opacity="0.6" filter="url(#sparkle)">
    <animate attributeName="opacity" values="0.4;0.8;0.6;0.8;0.4" dur="5s" repeatCount="indefinite" />
  </circle>
  <circle cx="22" cy="15" r="1.5" fill="url(#shimmer)" opacity="0.6" filter="url(#sparkle)">
    <animate attributeName="opacity" values="0.4;0.8;0.6;0.8;0.4" dur="5.5s" repeatCount="indefinite" />
  </circle>
  
  <!-- Primary connections -->
  <line x1="16" y1="16" x2="12" y2="11" stroke="#667eea" stroke-width="1.5" opacity="0.4">
    <animate attributeName="opacity" values="0.2;0.6;0.4;0.6;0.2" dur="4s" repeatCount="indefinite" />
  </line>
  <line x1="16" y1="16" x2="20" y2="11" stroke="#667eea" stroke-width="1.5" opacity="0.4">
    <animate attributeName="opacity" values="0.2;0.6;0.4;0.6;0.2" dur="4.5s" repeatCount="indefinite" />
  </line>
</svg>
